<mxfile host="Electron" agent="Mozilla/5.0 (Macintosh; Intel Mac OS X 10_15_7) AppleWebKit/537.36 (KHTML, like Gecko) draw.io/24.7.17 Chrome/128.0.6613.36 Electron/32.0.1 Safari/537.36" version="24.7.17">
  <diagram name="Page-1" id="T_PnQbnJidO--OdvgyNJ">
    <mxGraphModel dx="1266" dy="743" grid="1" gridSize="10" guides="1" tooltips="1" connect="1" arrows="1" fold="1" page="1" pageScale="1" pageWidth="850" pageHeight="1100" math="0" shadow="0">
      <root>
        <mxCell id="0" />
        <mxCell id="1" parent="0" />
        <mxCell id="qrCRLt0OtD2atx_0Ao5p-3" value="Start" style="strokeWidth=2;html=1;shape=mxgraph.flowchart.start_1;whiteSpace=wrap;" parent="1" vertex="1">
          <mxGeometry x="325" y="20" width="75" height="40" as="geometry" />
        </mxCell>
        <mxCell id="qrCRLt0OtD2atx_0Ao5p-5" value="Browse Movies" style="rounded=1;whiteSpace=wrap;html=1;" parent="1" vertex="1">
          <mxGeometry x="110" y="160" width="120" height="60" as="geometry" />
        </mxCell>
        <mxCell id="qrCRLt0OtD2atx_0Ao5p-6" value="Select Movie" style="rounded=1;whiteSpace=wrap;html=1;" parent="1" vertex="1">
          <mxGeometry x="302.5" y="290" width="120" height="60" as="geometry" />
        </mxCell>
        <mxCell id="qrCRLt0OtD2atx_0Ao5p-7" value="View Theaters" style="rounded=1;whiteSpace=wrap;html=1;" parent="1" vertex="1">
          <mxGeometry x="480" y="160" width="120" height="60" as="geometry" />
        </mxCell>
        <mxCell id="qrCRLt0OtD2atx_0Ao5p-8" value="Search Moies" style="rounded=1;whiteSpace=wrap;html=1;" parent="1" vertex="1">
          <mxGeometry x="302.5" y="160" width="120" height="60" as="geometry" />
        </mxCell>
        <mxCell id="qrCRLt0OtD2atx_0Ao5p-9" value="Select Showtime" style="rounded=1;whiteSpace=wrap;html=1;" parent="1" vertex="1">
          <mxGeometry x="302.5" y="410" width="120" height="60" as="geometry" />
        </mxCell>
        <mxCell id="qrCRLt0OtD2atx_0Ao5p-10" value="Proceed to Booking" style="strokeWidth=2;html=1;shape=mxgraph.flowchart.terminator;whiteSpace=wrap;" parent="1" vertex="1">
          <mxGeometry x="312.5" y="550" width="100" height="60" as="geometry" />
        </mxCell>
        <mxCell id="qrCRLt0OtD2atx_0Ao5p-11" value="" style="endArrow=classic;html=1;rounded=0;exitX=0.5;exitY=1;exitDx=0;exitDy=0;exitPerimeter=0;entryX=0.5;entryY=0;entryDx=0;entryDy=0;" parent="1" source="qrCRLt0OtD2atx_0Ao5p-3" target="qrCRLt0OtD2atx_0Ao5p-5" edge="1">
          <mxGeometry width="50" height="50" relative="1" as="geometry">
            <mxPoint x="240" y="110" as="sourcePoint" />
            <mxPoint x="290" y="60" as="targetPoint" />
            <Array as="points">
              <mxPoint x="170" y="110" />
            </Array>
          </mxGeometry>
        </mxCell>
        <mxCell id="qrCRLt0OtD2atx_0Ao5p-12" value="" style="endArrow=classic;html=1;rounded=0;exitX=0.5;exitY=1;exitDx=0;exitDy=0;exitPerimeter=0;entryX=0.5;entryY=0;entryDx=0;entryDy=0;" parent="1" source="qrCRLt0OtD2atx_0Ao5p-3" target="qrCRLt0OtD2atx_0Ao5p-8" edge="1">
          <mxGeometry width="50" height="50" relative="1" as="geometry">
            <mxPoint x="460" y="120" as="sourcePoint" />
            <mxPoint x="510" y="70" as="targetPoint" />
          </mxGeometry>
        </mxCell>
        <mxCell id="qrCRLt0OtD2atx_0Ao5p-13" value="" style="endArrow=classic;html=1;rounded=0;exitX=0.5;exitY=1;exitDx=0;exitDy=0;exitPerimeter=0;entryX=0.5;entryY=0;entryDx=0;entryDy=0;" parent="1" source="qrCRLt0OtD2atx_0Ao5p-3" target="qrCRLt0OtD2atx_0Ao5p-7" edge="1">
          <mxGeometry width="50" height="50" relative="1" as="geometry">
            <mxPoint x="470" y="110" as="sourcePoint" />
            <mxPoint x="520" y="60" as="targetPoint" />
            <Array as="points">
              <mxPoint x="540" y="110" />
            </Array>
          </mxGeometry>
        </mxCell>
        <mxCell id="qrCRLt0OtD2atx_0Ao5p-14" value="" style="endArrow=classic;html=1;rounded=0;exitX=0.5;exitY=1;exitDx=0;exitDy=0;entryX=0.5;entryY=0;entryDx=0;entryDy=0;" parent="1" source="qrCRLt0OtD2atx_0Ao5p-8" target="qrCRLt0OtD2atx_0Ao5p-6" edge="1">
          <mxGeometry width="50" height="50" relative="1" as="geometry">
            <mxPoint x="230" y="250" as="sourcePoint" />
            <mxPoint x="280" y="200" as="targetPoint" />
          </mxGeometry>
        </mxCell>
        <mxCell id="qrCRLt0OtD2atx_0Ao5p-15" value="" style="endArrow=classic;html=1;rounded=0;exitX=0.5;exitY=1;exitDx=0;exitDy=0;entryX=0;entryY=0.5;entryDx=0;entryDy=0;" parent="1" source="qrCRLt0OtD2atx_0Ao5p-5" target="qrCRLt0OtD2atx_0Ao5p-6" edge="1">
          <mxGeometry width="50" height="50" relative="1" as="geometry">
            <mxPoint x="140" y="320" as="sourcePoint" />
            <mxPoint x="190" y="270" as="targetPoint" />
            <Array as="points">
              <mxPoint x="170" y="320" />
            </Array>
          </mxGeometry>
        </mxCell>
        <mxCell id="qrCRLt0OtD2atx_0Ao5p-16" value="" style="endArrow=classic;html=1;rounded=0;exitX=0.5;exitY=1;exitDx=0;exitDy=0;entryX=1;entryY=0.5;entryDx=0;entryDy=0;" parent="1" source="qrCRLt0OtD2atx_0Ao5p-7" target="qrCRLt0OtD2atx_0Ao5p-6" edge="1">
          <mxGeometry width="50" height="50" relative="1" as="geometry">
            <mxPoint x="640" y="330" as="sourcePoint" />
            <mxPoint x="630" y="390" as="targetPoint" />
            <Array as="points">
              <mxPoint x="540" y="320" />
            </Array>
          </mxGeometry>
        </mxCell>
        <mxCell id="qrCRLt0OtD2atx_0Ao5p-17" value="" style="endArrow=classic;html=1;rounded=0;exitX=0.5;exitY=1;exitDx=0;exitDy=0;entryX=0.5;entryY=0;entryDx=0;entryDy=0;" parent="1" source="qrCRLt0OtD2atx_0Ao5p-6" target="qrCRLt0OtD2atx_0Ao5p-9" edge="1">
          <mxGeometry width="50" height="50" relative="1" as="geometry">
            <mxPoint x="270" y="380" as="sourcePoint" />
            <mxPoint x="320" y="330" as="targetPoint" />
          </mxGeometry>
        </mxCell>
        <mxCell id="qrCRLt0OtD2atx_0Ao5p-18" value="" style="endArrow=classic;html=1;rounded=0;exitX=0.5;exitY=1;exitDx=0;exitDy=0;entryX=0.5;entryY=0;entryDx=0;entryDy=0;entryPerimeter=0;" parent="1" source="qrCRLt0OtD2atx_0Ao5p-9" target="qrCRLt0OtD2atx_0Ao5p-10" edge="1">
          <mxGeometry width="50" height="50" relative="1" as="geometry">
            <mxPoint x="50" y="510" as="sourcePoint" />
            <mxPoint x="100" y="460" as="targetPoint" />
          </mxGeometry>
        </mxCell>
      </root>
    </mxGraphModel>
  </diagram>
</mxfile>
